<svg version="1" xmlns="http://www.w3.org/2000/svg" width="341.333" height="341.333" viewBox="0 0 256.000000 256.000000"><path d="M98.7 64.7c-14.8 10-15.6 10.7-14.1 12.4 1.5 1.7 2.4 1.3 16.8-8.3 8.3-5.5 15.3-10.2 15.4-10.4.6-.4-.9-4.4-1.6-4.3-.4 0-7.8 4.8-16.5 10.6zM139.1 55.8c-.9 1.7.7 3 12.1 10.8 20.6 13.9 18.2 12.7 20.2 10.6 1.5-1.8.9-2.4-14.4-12.5-8.8-5.9-16.2-10.7-16.5-10.7-.2 0-.9.8-1.4 1.8zM125 81v18h5V63h-5v18zM86.6 89.2c-.3 1.3-.1 2.5.6 2.7.6.2 7.3 3.4 14.9 7.2 13.4 6.6 13.8 6.7 15.4 4.9 1.7-1.9 1.3-2.2-14-9.5-8.7-4.1-15.9-7.5-16-7.5-.2 0-.5 1-.9 2.2zM152.1 94.5c-14.1 6.9-15.2 7.6-14 9.2.7 1 1.4 1.9 1.5 2.1.1.1 6.8-3 15-7 13.1-6.5 14.9-7.6 14.6-9.6-.2-1.2-.6-2.2-1-2.1-.4 0-7.6 3.3-16.1 7.4zM73.9 98.5c-.3.2 0 5.3.7 11.2.7 6 1.3 11.4 1.4 12 0 .7 1.2 1.3 2.6 1.3 2.3 0 2.5-.3 2-2.8-.2-1.5-.7-5.4-1.1-8.7C78.4 99.8 77.9 98 76.1 98c-1 0-2 .2-2.2.5zM177.6 100.7c-.2 1.6-.7 5.9-1.1 9.8-.3 3.8-.8 8.2-1.1 9.7-.5 2.5-.3 2.8 2 2.8 1.4 0 2.6-.6 2.6-1.3.1-.6.7-6 1.4-12 .7-5.9 1-11 .7-11.2-1.4-1.5-4-.2-4.5 2.2zM101.9 122.4c-11.8 5.7-12.6 6.2-11.7 8.2 1 2.1 1.2 2 12.8-3.5 8.1-3.8 12.1-6.2 12.4-7.6.3-1.1.2-2.2-.2-2.6-.4-.3-6.4 2.1-13.3 5.5zM140.2 118.5c.3 2.3 1.8 3.4 12.4 8.5 12.1 5.7 12.2 5.8 13.2 3.5 1-2.1.4-2.5-11.5-8.1-7-3.2-13-6.1-13.5-6.3-.5-.2-.8.9-.6 2.4zM124.7 139.2c-.3 1.3-1.1 7.5-1.8 13.8-.6 6.3-1.3 11.7-1.5 11.9-.2.2-7-4.9-15.3-11.3-8.2-6.4-15.2-11.6-15.5-11.6-.3 0-1 .8-1.5 1.9-.9 1.6 1.1 3.5 15.5 14.6 14.9 11.6 16.4 13.1 16 15.4-.3 1.4-.7 5.3-1.1 8.6-.3 3.3-.8 7.2-1.1 8.7l-.6 2.8H69.3l5.4-22.1c3-12.2 5.3-22.3 5.1-22.4-.2-.2-2.1-.5-4.2-.7l-4-.3-9.1 22.5-9.2 22.5-9.1.3c-7.3.2-9.7-.1-11.7-1.4-1.6-1-2.4-2.3-2-3.2 1-2.6-.6-8-3.1-10.7-1.6-1.7-2.4-3.8-2.4-6 0-5-1.8-8.2-5.7-10-4.2-2-9.2-1.3-11.8 1.5-1.7 1.8-1.6 2.3 1.9 11.2 12.6 32.6 39.1 58.4 73.9 72.2 27.2 10.8 62.2 10.8 89.4 0 34.8-13.8 61.3-39.6 73.9-72.2 3.5-8.9 3.6-9.4 1.9-11.2-2.6-2.8-7.6-3.5-11.8-1.5-3.9 1.8-5.7 5-5.7 10 0 2.2-.8 4.3-2.4 6-2.5 2.7-4.1 8.1-3.1 10.7.4.9-.4 2.2-2 3.2-2 1.3-4.4 1.6-11.7 1.4l-9.1-.3-9.2-22.5-9.2-22.5-3.9.3c-2.1.2-4.1.5-4.3.7-.1.2 2.2 10.3 5.2 22.4l5.4 22.1h-49.4l-.7-6.8c-.4-3.7-.9-8.8-1.2-11.3l-.6-4.6 16.5-12.8c14.4-11.1 16.5-13 15.6-14.6-.5-1.1-1.3-1.9-1.7-1.9-.4 0-7.4 5.2-15.5 11.6-8.2 6.4-15 11.4-15.2 11.2-.4-.4-3.5-24-3.5-26.5 0-.8-1.2-1.3-2.9-1.3-2.2 0-3 .6-3.4 2.2z"/></svg>